<svg xmlns="http://www.w3.org/2000/svg" width="644.533" height="644.533" viewBox="0 0 644.533 644.533"><path d="M579.95 173.792H345.04L494.705 22.95 471.933 0l-157.72 158.958L156.496 0l-22.773 22.95L283.39 173.792H64.582c-26.638 0-48.316 21.84-48.316 48.703V595.83c0 26.848 21.678 48.703 48.316 48.703h515.37c26.637 0 48.314-21.84 48.314-48.703V222.494c0-26.848-21.678-48.702-48.316-48.702zm16.106 422.038c0 8.955-7.23 16.234-16.104 16.234H64.582c-8.873 0-16.104-7.28-16.104-16.234V222.494c0-8.955 7.23-16.234 16.105-16.234h515.37c8.873 0 16.103 7.28 16.103 16.234V595.83zm-96.63-340.868H145.108c-26.64 0-48.317 21.838-48.317 48.702v211.01c0 26.85 21.678 48.704 48.316 48.704h354.315c26.638 0 48.315-21.84 48.315-48.703V303.648c0-26.847-21.678-48.686-48.315-48.686zm16.103 259.714c0 8.955-7.23 16.234-16.105 16.234H145.11c-8.875 0-16.106-7.28-16.106-16.234V303.648c0-8.955 7.23-16.234 16.105-16.234h354.315c8.874 0 16.104 7.28 16.104 16.234v211.028z"/></svg>