<svg id="ggl" xmlns="http://www.w3.org/2000/svg" viewBox="0 0 604.35 604.35"><path d="M423.3 341.7l-28.05-20.4c-10.2-7.65-20.4-17.85-20.4-35.7s12.75-33.15 25.5-40.8c33.15-25.5 66.3-53.55 66.3-109.65 0-53.55-33.15-84.15-51-99.45H459L489.6 0H331.5C219.3 0 163.2 71.4 163.2 147.9c0 58.65 45.9 122.4 127.5 122.4h20.4c-2.55 7.65-10.2 20.4-10.2 33.15 0 25.5 10.2 35.7 22.95 51-35.7 2.55-102 10.2-150.45 40.8-45.9 28.05-58.65 66.3-58.65 94.35 0 58.65 53.55 114.75 168.3 114.75 137.7 0 204-76.5 204-150.45 0-53.55-28.05-81.6-63.75-112.2zM229.5 109.65c0-56.1 33.15-81.6 68.85-81.6 66.3 0 102 89.25 102 140.25 0 66.3-53.55 79.05-73.95 79.05-63.75 0-96.9-79.05-96.9-137.7zm91.8 459c-84.15 0-137.7-38.25-137.7-94.35 0-56.1 51-73.95 66.3-81.6 33.15-10.2 76.5-12.75 84.15-12.75h17.85c61.2 43.35 86.7 61.2 86.7 102 0 48.45-48.45 86.7-117.3 86.7z"/></svg>
