<svg id="git" xmlns="http://www.w3.org/2000/svg" viewBox="0 0 478.165 478.165"><path d="M349.22 55.768c6.136 14.046 10.24 37.556 4.224 54.69 24.426 21 33.073 71.904 21.08 113.704 35.005 2.73 76.665-1.235 103.64 9.484-25.182-3.248-59.65-9.563-91.986-7.43-6.136.457-15.36-.24-14.903 8.407 37.735 3.008 75.092 6.117 105.894 15.78-30.703-4.982-67.74-12.553-105.895-13.67-15.54 30.922-47.24 46.263-90.99 49.49 4.68 10.262 13.846 14.067 15.878 30.703 3.267 24.406-4.88 60.328 3.208 76.686 4.065 7.89 10.58 8.01 14.864 14.604-10.7 12.87-37.257-1.395-40.186-14.604-5.14-22.852 7.89-58.256-6.415-73.737.996 24.865-5.718 59.85.996 82.145 2.788 8.806 10.658 12.113 8.646 20.063-49.81 5.08-28.99-64.373-37.177-105.356-7.472.697-4.205 11.197-4.225 15.76-.2 40.106 8.19 94.836-34.846 89.556-1.316-8.348 5.837-11.217 8.466-19.007 7.91-22.434-1.454-56.045 2.112-83.16-16.417 12.51 1.793 55.665-8.428 77.96-5.838 12.67-24.785 18.27-39.19 12.65 1.873-9.463 11.695-7.988 15.88-16.874 5.817-12.452.02-30.244 2.09-48.494-30.422 6.097-53.992-.877-65.607-20.023-5.12-8.507-6.356-18.708-12.632-26.22-6.116-7.55-16.097-8.506-19.086-18.807 37.755-9.185 39.17 38.77 73.06 39.807 10.44.418 15.8-2.91 25.402-5.16 2.75-12.113 8.428-21.04 16.875-27.494-42.077-5.657-76.864-18.787-93.022-50.465-38.293 1.893-73.34 7.013-105.894 14.843 29.547-10.68 65.807-14.604 104.778-15.82-2.35-13.806-22.434-10.02-34.866-9.542-23.29.934-52.517 3.902-70.966 7.41 26.817-9.544 64.233-8.35 100.454-8.43-11.038-34.766-7.232-90.013 17.015-110.614-6.855-17.254-4.723-45.346 4.183-58.834 27.036 1.175 43.374 12.89 60.388 24.247 21.02-6.017 43.036-9.045 71.905-7.45 12.133.676 24.705 6.096 33.73 5.32 8.907-.878 18.73-10.9 27.535-14.844 11.297-4.94 20.96-6.834 34.01-7.272z"/></svg>
