<svg id="cup" xmlns="http://www.w3.org/2000/svg" viewBox="0 0 612 612"><path d="M294.678 459.278c47.903 0 98.95-21.698 135-70.02 2.922-.026 7.345-.39 14.105-1.334 21.587-3.032 65.818-20.446 83.79-32.575 11.404-7.707 30.85-24.676 38.722-40.532 5.925-11.934 11.016-27.985 8.9-43.313-2.14-15.328-11.32-55.775-53.076-61.117-20.81-2.67-34.996-.807-44.01 1.725-.083-6.955-.333-14.076-.723-21.365-27.456 26.51-98.894 45.427-182.71 45.427-83.815 0-155.28-18.917-182.71-45.455-10.57 190.278 91.718 268.558 182.71 268.558zM476.47 254.926c13.353-10.793 36.915-24.285 60.95-11.46 9.347 4.978 19.778 20.417 15.772 40.196-4.034 19.78-27.513 41.42-45.928 50.156-18.165 8.623-38.167 11.434-52.8 12.185 11.046-25.593 18.807-55.832 22.006-91.077zM0 486.54c0 13.91 13.91 13.91 13.91 13.91h584.18s13.91 0 13.91-13.91-13.91-13.91-13.91-13.91H13.91S0 472.63 0 486.54z"/><ellipse cx="294.678" cy="167.187" rx="180.818" ry="55.636"/></svg>