<svg id="plane" xmlns="http://www.w3.org/2000/svg" viewBox="0 0 612.008 612.007"><path d="M612.008 89.517c-.07-2.462-.762-4.587-1.93-6.75-.355-.69-.072-1.54-.586-2.195-.248-.266-.584-.23-.832-.443-.283-.355-.283-.798-.514-1.082-2.285-2.25-5.084-3.614-8.06-4.145-.32-.036-.48.124-.762.07-2.692-.335-5.51-.176-8.024.94L9.024 331.306C3.108 333.91-.523 340.038.06 346.504c.515 6.465 5.155 11.868 11.515 13.41l131.717 31.918 64.034 136.624c.443.886 1.275 1.33 1.877 2.09.284.48.106 1.08.514 1.506.584.744 1.523 1.1 2.285 1.665.584.496 1.098.992 1.877 1.364 2.284 1.26 4.64 2.11 7.19 2.11.585 0 1.1-.037 1.702-.107 2.87-.32 5.296-1.683 7.44-3.348.247-.213.654-.106.938-.337l100.913-89.028 99.85 32.753c7.44 2.32 15.57-1.223 18.69-8.396L611.37 95.787c.32-.903.07-1.895.248-2.852.32-1.204.39-2.178.39-3.418zM237.58 389.335c-.282.194-.176.566-.442.78-2 2.054-3.702 4.428-4.322 7.332l-16.987 77.64-42.478-90.765 262.14-170.865-197.91 175.878zm197.293-211.71L151.193 362.5l-88.85-21.504 372.53-163.372zm-189.09 302.44l13.037-59.73 39.82 13.055-52.857 46.674zM428.266 444L277.42 394.49l279.11-248.06L428.265 444z"/></svg>