<svg id "a" xmlns="http://www.w3.org/2000/svg" xmlns:xlink="http://www.w3.org/1999/xlink" viewBox="0 0 619.528 619.528"><defs><path id="a" d="M0 5.283h619.528V614.25H0z"/></defs><clipPath id="b"><use xlink:href="#a" overflow="visible"/></clipPath><path d="M490.928 482.236c0 6.362-5.404 11.538-12.08 11.538H140.36c-6.667 0-12.094-5.176-12.094-11.538V292.99c0-6.385 5.428-11.57 12.093-11.57h338.49c6.676 0 12.08 5.185 12.08 11.57v189.246zm21.465-225.952H106.818c-7.992 0-14.487 6.376-14.487 14.288V504.66c0 7.878 6.496 14.277 14.488 14.277h405.575c8.002 0 14.487-6.4 14.487-14.278V270.57c0-7.912-6.485-14.288-14.487-14.288z" clip-path="url(#b)"/><path d="M557.826 532.287c0 9.812-7.396 17.786-16.573 17.786H77.275c-9.14 0-16.573-7.974-16.573-17.786V240.99c0-9.826 7.433-17.795 16.573-17.795h463.978c9.178 0 16.573 7.97 16.573 17.796v291.297zm30.567-369.457H407.97c-20.84-15.255-45.282-25.68-71.886-29.884 0 0 93.843-93.696 100.84-100.708 7.016-7.01 8.116-15.72 0-23.03-12.136-9.812-22.564 1.855-22.564 1.855s-99 99.01-110.51 110.525c-11.36 11.358-16.66 3.57-16.66 3.57s-77.355-77.356-84.674-83.888c-7.32-6.537-16.814-4.214-22.574 2.494-8.097 10.106 1.863 20.53 1.863 20.53l75.34 74.887h.314c-16.81 5.44-32.374 13.544-46.382 23.65H31.136C14.013 162.83 0 176.848 0 193.966V614.25h619.528V193.965c0-17.118-13.86-31.135-31.135-31.135z" clip-path="url(#b)"/></svg>